# xmcd CD database file
#
# Track frame offsets:
#	150
#	25030
#	44065
#	69302
#	94260
#	112422
#	127917
#	132332
#	156017
#	176840
#	185507
#
# Disc length: 2694 seconds
#
# Revision: 0
# Processed by: cddbd v1.5.2PL0 Copyright (c) Steve Scherf et al.
# Submitted via: CDex 1.51
#
DISCID=9c0a840b
DTITLE=GIRA MUNDO - Cidade de Luz
DYEAR=2007
DGENRE=Jazz
TTITLE0=Luz
TTITLE1=Like we used to be (feat. Ohana)
TTITLE2=Cidade (feat. saigenji)
TTITLE3=Your Love (feat. Onuki Taeko)
TTITLE4=Ponto de Vida (feat. Ohana)
TTITLE5=Treasure Box (feat. Ryoichi Hino)
TTITLE6=Inter
TTITLE7=Where my tears flow (feat. Ohana)
TTITLE8=So por Voce (feat. Ryoichi Hino)
TTITLE9=Danca de gato
TTITLE10=Cancao de niner
EXTD=YEAR: 2007
EXTT0=
EXTT1=
EXTT2=
EXTT3=
EXTT4=
EXTT5=
EXTT6=
EXTT7=
EXTT8=
EXTT9=
EXTT10=
PLAYORDER=
